<svg width="321" height="139" viewBox="0 0 321 139" fill="none" xmlns="http://www.w3.org/2000/svg">
<rect width="321" height="139" rx="20" fill="white"/>
<path d="M62.8827 64.0579C62.8827 61.5961 64.8915 60.6488 68.2193 60.6488C72.99 60.6488 79.0165 62.1012 83.7877 64.6895V49.8533C78.5773 47.7702 73.4296 46.9494 68.2193 46.9494C55.475 46.9494 47 53.6415 47 64.8161C47 82.2397 70.8554 79.4623 70.8554 86.9751C70.8554 89.8786 68.3446 90.8259 64.8288 90.8259C59.6185 90.8259 52.9638 88.6792 47.6904 85.7753V100.801C53.5288 103.326 59.43 104.399 64.8288 104.399C77.8865 104.399 86.8638 97.8967 86.8638 86.5961C86.8012 67.783 62.8827 71.1286 62.8827 64.0579ZM105.32 34.3233L90.0027 37.6059L89.94 88.1741C89.94 97.518 96.9085 104.399 106.2 104.399C111.347 104.399 115.114 103.452 117.185 102.316V89.5C115.177 90.3208 105.258 93.2247 105.258 83.8812V61.4695H117.185V48.0227H105.258L105.32 34.3233ZM136.71 52.6942L135.705 48.0227H122.145V103.262H137.84V65.8259C141.543 60.9648 147.821 61.8486 149.767 62.5429V48.0227C147.758 47.265 140.413 45.8761 136.71 52.6942ZM153.597 48.0227H169.354V103.262H153.597V48.0227ZM153.597 43.2247L169.354 39.8156V27L153.597 30.3461V43.2247ZM202.124 46.9494C195.972 46.9494 192.017 49.8533 189.82 51.8739L189.003 47.9597H175.192V121.57L190.887 118.225L190.95 100.358C193.21 102 196.537 104.336 202.061 104.336C213.298 104.336 223.531 95.2448 223.531 75.2324C223.468 56.9241 213.11 46.9494 202.124 46.9494ZM198.357 90.4468C194.653 90.4468 192.456 89.1214 190.95 87.4798L190.887 64.0579C192.519 62.2273 194.779 60.9648 198.357 60.9648C204.07 60.9648 208.025 67.4039 208.025 75.6741C208.025 84.1338 204.133 90.4468 198.357 90.4468ZM273 75.8636C273 59.702 265.215 46.9494 250.337 46.9494C235.396 46.9494 226.356 59.7024 226.356 75.7376C226.356 94.7397 237.028 104.336 252.346 104.336C259.817 104.336 265.467 102.631 269.735 100.232V87.6059C265.467 89.7526 260.57 91.0785 254.355 91.0785C248.265 91.0785 242.867 88.9318 242.176 81.4824H272.875C272.875 80.6612 273 77.3786 273 75.8636ZM241.988 69.8662C241.988 62.7324 246.32 59.765 250.275 59.765C254.104 59.765 258.185 62.7324 258.185 69.8662H241.988Z" fill="#6772E5"/>
</svg>
