<svg width="321" height="139" viewBox="0 0 321 139" fill="none" xmlns="http://www.w3.org/2000/svg">
<rect width="321" height="139" rx="20" fill="white"/>
<g clip-path="url(#clip0_102_16)">
<mask id="mask0_102_16" style="mask-type:luminance" maskUnits="userSpaceOnUse" x="54" y="35" width="213" height="69">
<path d="M267 35H54V103.721H267V35Z" fill="white"/>
</mask>
<g mask="url(#mask0_102_16)">
<path d="M192.703 35.1058C177.595 35.1058 164.093 42.8884 164.093 57.2641C164.093 73.7522 188.039 74.8909 188.039 83.1751C188.039 86.6632 184.017 89.7852 177.146 89.7852C167.397 89.7852 160.11 85.4229 160.11 85.4229L156.992 99.932C156.992 99.932 165.386 103.617 176.53 103.617C193.049 103.617 206.048 95.4533 206.048 80.83C206.048 63.4064 182.002 62.3016 182.002 54.6142C182.002 51.8817 185.304 48.8889 192.154 48.8889C199.884 48.8889 206.189 52.0616 206.189 52.0616L209.241 38.05C209.241 38.05 202.378 35.1058 192.701 35.1058H192.703ZM54.4729 36.1641L54.1065 38.2786C54.1065 38.2786 60.4624 39.4342 66.1879 41.7413C73.5598 44.3848 74.0838 45.9257 75.3256 50.7049L88.8532 102.525H106.988L134.925 36.1641H116.833L98.8812 81.2829L91.5562 43.0366C90.8852 38.6595 87.4815 36.162 83.3173 36.162H54.475L54.4729 36.1641ZM142.201 36.1641L128.009 102.525H145.262L159.403 36.1641H142.201ZM238.426 36.1641C234.266 36.1641 232.062 38.378 230.445 42.245L205.168 102.525H223.26L226.76 92.4774H248.801L250.929 102.525H266.894L252.968 36.1641H238.426ZM240.78 54.0935L246.143 78.9949H231.776L240.782 54.0935H240.78Z" fill="#1434CB"/>
</g>
</g>
<defs>
<clipPath id="clip0_102_16">
<rect width="213" height="69" fill="white" transform="translate(54 35)"/>
</clipPath>
</defs>
</svg>
