<svg width="321" height="139" viewBox="0 0 321 139" fill="none" xmlns="http://www.w3.org/2000/svg">
<rect width="321" height="139" rx="20" fill="white"/>
<path d="M90.8805 60.6257C95.1039 63.6528 100.281 65.4368 105.867 65.4368V54.6475C104.811 54.6475 103.756 54.5357 102.718 54.3166V62.8077C97.1265 62.8077 91.9542 61.0236 87.7308 57.9966V80.0134C87.7308 91.0263 78.8295 99.9555 67.8523 99.9555C63.7536 99.9555 59.949 98.7125 56.7859 96.5841C60.3945 100.286 65.4287 102.585 71.002 102.585C81.9837 102.585 90.8849 93.6554 90.8849 82.6425V60.6257H90.8805ZM94.7653 49.7425C92.6046 47.3771 91.1879 44.3188 90.8805 40.9384V39.5523H87.8956C88.6485 43.8493 91.2057 47.5202 94.7608 49.7425H94.7653ZM63.7269 88.1333C62.5196 86.546 61.8691 84.6054 61.8736 82.6112C61.8736 77.572 65.9455 73.4897 70.9664 73.4897C71.9019 73.4897 72.833 73.6328 73.724 73.919V62.8882C72.6816 62.7451 71.6302 62.6825 70.5788 62.7049V71.2898C69.6877 71.0037 68.7566 70.8606 67.8166 70.8606C62.7958 70.8606 58.7238 74.9429 58.7238 79.9821C58.7238 83.5457 60.7598 86.6265 63.7269 88.1333Z" fill="#FF004F"/>
<path d="M87.7306 58.001C91.954 61.0281 97.1308 62.8122 102.717 62.8122V54.3211C99.5989 53.6549 96.8367 52.0184 94.7607 49.7425C91.2055 47.5158 88.6439 43.8448 87.8954 39.5523H80.059V82.647C80.0412 87.6728 75.9781 91.7372 70.9662 91.7372C68.0125 91.7372 65.3885 90.3243 63.7267 88.1378C60.7597 86.6354 58.7237 83.5502 58.7237 79.991C58.7237 74.9518 62.7956 70.8695 67.8165 70.8695C68.7788 70.8695 69.7054 71.0215 70.5786 71.2988V62.7138C59.7929 62.9374 51.1189 71.7772 51.1189 82.6515C51.1189 88.0797 53.2796 92.9981 56.7857 96.5931C59.9488 98.7214 63.7579 99.9644 67.8521 99.9644C78.8338 99.9644 87.7306 91.0352 87.7306 80.0223V58.0055V58.001Z" fill="black"/>
<path d="M102.718 54.3165V52.0183C99.9064 52.0183 97.1442 51.2313 94.7608 49.7379C96.8725 52.0585 99.6569 53.6592 102.718 54.3165ZM87.8955 39.5477C87.8242 39.1364 87.7708 38.725 87.7307 38.3092V36.9231H76.9138V80.0177C76.896 85.039 72.8329 89.1079 67.821 89.1079C66.3508 89.1079 64.9608 88.7592 63.7313 88.1332C65.393 90.3197 68.017 91.7326 70.9707 91.7326C75.9827 91.7326 80.0457 87.6637 80.0635 82.6424V39.5477H87.9H87.8955ZM70.5787 62.7047V60.2589C69.6743 60.1337 68.7655 60.0711 67.8522 60.0711C56.8705 60.0711 47.9692 69.0004 47.9692 80.0133C47.9692 86.917 51.4665 93.0025 56.7814 96.584C53.2752 92.9891 51.1145 88.0661 51.1145 82.6424C51.1145 71.7681 59.7885 62.9283 70.5742 62.7047H70.5787Z" fill="#00F2EA"/>
<path d="M228.074 90.9322C235.928 90.9322 242.299 84.5918 242.299 76.7715C242.299 68.9511 235.928 62.6108 228.074 62.6108H225.931C233.786 62.6108 240.156 68.9511 240.156 76.7715C240.156 84.5918 233.786 90.9322 225.931 90.9322H228.074Z" fill="#FF004F"/>
<path d="M225.735 62.6064H223.592C215.738 62.6064 209.367 68.9467 209.367 76.7671C209.367 84.5874 215.738 90.9278 223.592 90.9278H225.735C217.876 90.9278 211.51 84.5874 211.51 76.7671C211.51 68.9467 217.881 62.6064 225.735 62.6064Z" fill="#00F2EA"/>
<path d="M117.589 56.2081V63.3846H125.964V90.7357H134.344V63.5768H141.165L143.504 56.2036H117.589V56.2081ZM186.179 56.2081V63.3846H194.554V90.7357H202.934V63.5768H209.755L212.094 56.2036H186.179V56.2081ZM145.063 60.2815C145.063 58.0324 146.894 56.2081 149.153 56.2081C151.411 56.2081 153.247 58.0324 153.247 60.2815C153.247 62.5305 151.416 64.3548 149.153 64.3548C146.894 64.3548 145.063 62.5305 145.063 60.2815ZM145.063 67.2657H153.242V90.7402H145.063V67.2657ZM156.753 56.2081V90.7402H164.937V81.8154L167.472 79.4858L175.46 90.9324H184.227L172.729 74.2499L183.056 64.1626H173.116L164.932 72.3093V56.2081H156.749H156.753ZM245.026 56.2081V90.7402H253.21V81.8154L255.74 79.4858L263.732 90.9324H272.5L261.001 74.2499L271.328 64.1626H261.389L253.205 72.3093V56.2081H245.021H245.026Z" fill="black"/>
<path d="M225.931 90.9322C233.786 90.9322 240.156 84.5918 240.156 76.7715C240.156 68.9511 233.786 62.6108 225.931 62.6108H225.735C217.881 62.6108 211.51 68.9511 211.51 76.7715C211.51 84.5918 217.881 90.9322 225.735 90.9322H225.931ZM218.915 76.7715C218.915 72.9664 222.015 69.8856 225.833 69.8856C229.651 69.8856 232.752 72.9664 232.752 76.7715C232.752 80.5766 229.656 83.6573 225.833 83.6573C222.011 83.6573 218.915 80.5721 218.915 76.7715Z" fill="black"/>
</svg>
