<svg width="321" height="139" viewBox="0 0 321 139" fill="none" xmlns="http://www.w3.org/2000/svg">
<rect width="321" height="139" rx="20" fill="white"/>
<path d="M283.878 77.6388C283.725 78.412 283.456 79.0681 283.089 79.6472C282.724 80.2263 282.243 80.6904 281.629 81.057C281.031 81.4051 280.282 81.5981 279.396 81.5981C278.51 81.5981 277.779 81.4246 277.184 81.057C276.589 80.7078 276.082 80.2252 275.702 79.6472C275.335 79.0681 275.066 78.4109 274.893 77.6388C274.724 76.8721 274.639 76.088 274.643 75.3018C274.643 74.4906 274.72 73.6794 274.874 72.9268C275.027 72.1536 275.296 71.478 275.663 70.8989C276.028 70.2992 276.509 69.8361 277.124 69.4511C277.721 69.0835 278.471 68.8904 279.356 68.8904C280.241 68.8904 280.953 69.0835 281.55 69.4511C282.147 69.822 282.654 70.3241 283.032 70.9184C283.417 71.517 283.687 72.2121 283.859 72.9658C284.032 73.738 284.11 74.5101 284.11 75.3028C284.11 76.0956 284.032 76.8666 283.878 77.6398V77.6388ZM288.997 71.402C288.631 70.1083 288.093 68.988 287.361 68.0034C286.61 67.0382 285.687 66.2454 284.571 65.6663C283.455 65.0872 282.108 64.7782 280.549 64.7782C279.317 64.7782 278.201 65.0298 277.182 65.5124C276.162 65.9949 275.315 66.7866 274.661 67.8494H274.584V65.3193H269.428V92.1043H274.854V82.6988H274.931C275.571 83.6434 276.447 84.4036 277.471 84.9003C278.511 85.4024 279.627 85.654 280.858 85.654C282.302 85.654 283.571 85.3644 284.668 84.8038C285.727 84.2594 286.653 83.4883 287.382 82.5438C288.113 81.5981 288.651 80.5158 288.998 79.2806C289.364 78.0444 289.537 76.7712 289.537 75.4373C289.537 74.0275 289.364 72.6763 288.998 71.3814V71.401L288.997 71.402ZM262.231 77.6388C262.077 78.412 261.808 79.0681 261.442 79.6472C261.076 80.2263 260.596 80.6904 259.98 81.057C259.384 81.4051 258.634 81.5981 257.749 81.5981C256.864 81.5981 256.152 81.4246 255.536 81.057C254.94 80.7067 254.433 80.2252 254.053 79.6472C253.688 79.0681 253.419 78.4109 253.246 77.6388C253.076 76.8721 252.992 76.088 252.995 75.3018C252.995 74.4906 253.072 73.6794 253.225 72.9268C253.38 72.1536 253.648 71.478 254.014 70.8989C254.38 70.2992 254.86 69.8361 255.476 69.4511C256.073 69.0835 256.823 68.8904 257.708 68.8904C258.593 68.8904 259.305 69.0835 259.902 69.4511C260.5 69.822 261.006 70.323 261.383 70.9184C261.767 71.517 262.038 72.2121 262.21 72.9658C262.383 73.738 262.46 74.5101 262.46 75.3028C262.46 76.0956 262.383 76.8666 262.23 77.6398L262.231 77.6388ZM265.713 68.0034C264.982 67.0382 264.039 66.2454 262.923 65.6663C261.806 65.0872 260.46 64.7782 258.901 64.7782C257.669 64.7782 256.554 65.0298 255.533 65.5124C254.514 65.9949 253.667 66.7866 253.014 67.8494H252.936V65.3193H247.779V92.1043H253.206V82.6988H253.284C253.923 83.6434 254.8 84.4036 255.824 84.9003C256.863 85.4024 257.979 85.654 259.21 85.654C260.672 85.654 261.923 85.3644 263.021 84.8038C264.079 84.2594 265.005 83.4883 265.733 82.5438C266.465 81.5981 267.004 80.5158 267.37 79.2806C267.726 78.0303 267.906 76.7376 267.909 75.4373C267.909 74.0275 267.735 72.6763 267.37 71.3814C267.004 70.0877 266.466 68.9674 265.715 67.9827V68.0023L265.713 68.0034ZM229.998 74.5687L233.558 64.5071H233.634L237.079 74.5687H229.998ZM230.575 57.7487L220.243 85.1508H226.285L228.422 79.0486H238.638L240.697 85.1508H246.931L236.714 57.7487H230.556H230.575ZM219.8 76.461C219.433 75.8429 218.972 75.3028 218.375 74.8777C217.798 74.4526 217.124 74.124 216.374 73.854C215.613 73.6035 214.843 73.3844 214.065 73.1979C213.296 73.0233 212.545 72.8498 211.813 72.6958C211.081 72.5418 210.408 72.3672 209.851 72.1742C209.274 71.9811 208.812 71.7306 208.465 71.4205C208.099 71.1114 207.926 70.7253 207.926 70.2232C207.926 69.8177 208.022 69.4891 208.233 69.2375C208.445 68.987 208.696 68.8124 208.984 68.6779C209.273 68.5423 209.6 68.4653 209.966 68.4274C210.298 68.3905 210.632 68.371 210.967 68.3699C211.93 68.3699 212.776 68.5629 213.488 68.9295C214.2 69.296 214.604 70.0107 214.661 71.0539H219.818C219.722 69.8177 219.395 68.8134 218.876 68.0023C218.356 67.1911 217.702 66.5545 216.913 66.0709C216.125 65.5872 215.22 65.2412 214.219 65.0287C213.219 64.8161 212.179 64.7196 211.102 64.7196C210.025 64.7196 208.985 64.8161 207.966 65.0092C206.946 65.2022 206.023 65.5308 205.215 66.0134C204.388 66.496 203.732 67.1336 203.253 67.9448C202.752 68.756 202.502 69.8187 202.502 71.0919C202.502 71.9616 202.674 72.6947 203.041 73.2933C203.388 73.893 203.867 74.3941 204.446 74.7997C205.042 75.1857 205.697 75.5143 206.447 75.7659C207.197 76.0175 207.967 76.2301 208.756 76.4036C210.7 76.8092 212.201 77.2147 213.297 77.6203C214.374 78.0259 214.913 78.6441 214.913 79.4552C214.913 79.9378 214.798 80.3434 214.566 80.672C214.34 80.993 214.044 81.2565 213.7 81.4441C213.353 81.6372 212.968 81.7727 212.546 81.8692C212.148 81.9603 211.742 82.0059 211.333 82.0048C210.794 82.0048 210.274 81.9473 209.793 81.8118C209.293 81.6762 208.851 81.4821 208.466 81.2131C208.082 80.9431 207.774 80.595 207.524 80.171C207.273 79.7459 207.158 79.2438 207.158 78.6647H202.001C202.059 79.9964 202.348 81.0971 202.906 81.9864C203.445 82.8756 204.156 83.5697 205.003 84.1108C205.849 84.652 206.831 85.0369 207.928 85.269C209.025 85.5011 210.14 85.6171 211.295 85.6171C212.451 85.6171 213.528 85.5011 214.605 85.2874C215.683 85.076 216.645 84.6888 217.491 84.1488C218.338 83.6087 219.012 82.894 219.532 82.0243C220.05 81.1361 220.32 80.0549 220.32 78.7417C220.32 77.8155 220.148 77.0423 219.781 76.4242L219.8 76.4643V76.461ZM197.343 59.3711H191.916V65.3193H188.625V68.9685H191.916V80.672C191.916 81.6762 192.089 82.4679 192.416 83.086C192.744 83.7041 193.205 84.1672 193.782 84.5153C194.359 84.8439 195.014 85.0749 195.764 85.1909C196.554 85.3091 197.352 85.3666 198.15 85.3644C198.689 85.3644 199.227 85.3449 199.804 85.3265C200.314 85.3091 200.822 85.2571 201.325 85.1714V80.942C201.059 81.0017 200.789 81.0407 200.518 81.0581C200.223 81.0808 199.928 81.0938 199.633 81.0971C198.709 81.0971 198.112 80.9431 197.804 80.633C197.496 80.325 197.342 79.7057 197.342 78.7991V68.9696H201.325V65.3204H197.342V59.3722L197.343 59.3711ZM181.775 77.4848C181.775 77.7928 181.737 78.1994 181.679 78.7211C181.614 79.2546 181.437 79.7676 181.159 80.2274C180.87 80.7295 180.447 81.1546 179.85 81.5222C179.273 81.8888 178.426 82.0634 177.368 82.0634C176.945 82.0634 176.521 82.0243 176.098 81.9473C175.693 81.8692 175.328 81.7337 175.02 81.5417C174.712 81.3487 174.481 81.0971 174.289 80.7501C174.116 80.4215 174.02 80.017 174.02 79.5138C174.02 79.0106 174.116 78.5866 174.289 78.2396C174.461 77.9099 174.711 77.6398 175.001 77.4089C175.289 77.1963 175.636 77.0228 176.039 76.8883C176.442 76.7538 176.828 76.6562 177.252 76.5792C177.686 76.5044 178.123 76.4404 178.56 76.3862C179.003 76.3287 179.407 76.2702 179.811 76.1932C180.216 76.1162 180.581 76.0197 180.928 75.9036C181.275 75.7876 181.563 75.6336 181.794 75.421V77.449L181.774 77.4869L181.775 77.4848ZM187.202 80.7479V70.4163C187.202 69.219 186.933 68.2539 186.394 67.5197C185.855 66.7855 185.163 66.2259 184.335 65.8203C183.489 65.4148 182.565 65.1447 181.545 64.9907C180.544 64.853 179.535 64.7825 178.524 64.7782C177.427 64.7782 176.331 64.8942 175.254 65.1068C174.176 65.3193 173.195 65.6859 172.328 66.2075C171.476 66.7161 170.746 67.4091 170.192 68.2354C169.635 69.0856 169.307 70.1473 169.23 71.4216H174.657C174.753 70.3404 175.118 69.5877 175.734 69.1236C176.35 68.6595 177.178 68.4285 178.255 68.4285C178.736 68.4285 179.198 68.4664 179.621 68.525C180.016 68.577 180.395 68.7083 180.738 68.911C181.065 69.1041 181.315 69.3741 181.508 69.7222C181.7 70.0703 181.797 70.5323 181.797 71.132C181.816 71.6916 181.661 72.1178 181.296 72.4258C180.931 72.7153 180.45 72.9474 179.834 73.1014C179.218 73.2554 178.526 73.3714 177.737 73.4495C176.948 73.5276 176.14 73.623 175.331 73.7586C174.523 73.8941 173.715 74.0666 172.907 74.2791C172.098 74.4917 171.386 74.8203 170.77 75.2649C170.135 75.7084 169.636 76.2875 169.231 77.0022C168.827 77.7364 168.635 78.6636 168.635 79.7838C168.635 80.8075 168.808 81.6957 169.155 82.4288C169.48 83.1446 169.967 83.7725 170.579 84.2637C171.214 84.7593 171.939 85.1269 172.715 85.3449C173.524 85.577 174.409 85.6919 175.351 85.6919C176.583 85.6919 177.776 85.5184 178.949 85.1508C180.11 84.7951 181.162 84.1509 182.008 83.2779C182.028 83.6065 182.085 83.934 182.143 84.2626C182.201 84.5706 182.297 84.9003 182.394 85.2083H187.897C187.647 84.8027 187.454 84.1846 187.358 83.3734C187.257 82.521 187.205 81.6632 187.204 80.8054V80.7457L187.202 80.7479ZM164.842 67.0371C164.303 66.342 163.571 65.7824 162.649 65.3952C161.725 64.9896 160.532 64.7966 159.07 64.7966C158.05 64.7966 157.011 65.0666 155.934 65.5883C154.856 66.1099 153.99 66.959 153.298 68.0988H153.183V57.7672H147.756V85.1703H153.183V74.7617C153.183 72.7338 153.51 71.286 154.183 70.3968C154.838 69.5086 155.915 69.0835 157.397 69.0835C158.686 69.0835 159.61 69.4891 160.11 70.2992C160.611 71.1103 160.881 72.3271 160.881 73.9679V85.1692H166.307V72.9647C166.307 71.7285 166.192 70.6093 165.98 69.6051C165.768 68.6009 165.383 67.7322 164.844 67.036L164.842 67.0371ZM136.152 76.6541H136.075L131.419 57.7682H125.8L121.065 76.4231H120.989L116.659 57.7682H110.656L117.891 85.1714H123.971L128.512 66.5166H128.588L133.207 85.1714H139.172L142.443 73.0049L146.522 57.7682H140.634L136.152 76.6541Z" fill="black"/>
<path d="M64.1934 38.5C46.1444 38.5 31.4625 53.2345 31.4625 71.3482C31.4625 78.5317 33.7717 85.1946 37.6964 90.6017L33.6172 102.806L46.2017 98.7709C51.3777 102.209 57.5543 104.198 64.2129 104.198C82.2619 104.198 96.9438 89.463 96.9438 71.3493C96.9438 53.2356 82.2619 38.5011 64.2129 38.5011H64.1934V38.5Z" fill="#25D366"/>
<path d="M55.0541 55.1853C54.4187 53.6594 53.9378 53.602 52.9761 53.5629C52.6109 53.5391 52.2445 53.526 51.8793 53.525C50.628 53.525 49.3194 53.8915 48.5306 54.7027C47.5689 55.6874 45.1829 57.9853 45.1829 62.6973C45.1829 67.4093 48.6084 71.9672 49.0698 72.6049C49.5506 73.2415 55.7478 83.0515 65.3682 87.0499C72.8924 90.1786 75.1249 89.8879 76.8365 89.5214C79.3381 88.9802 82.475 87.1258 83.2638 84.8864C84.0526 82.6459 84.0526 80.734 83.8214 80.3284C83.5902 79.9228 82.9548 79.6918 81.9931 79.2082C81.0313 78.7256 76.3546 76.4081 75.4696 76.099C74.6029 75.7704 73.7763 75.8876 73.1225 76.8137C72.1986 78.1075 71.2942 79.4207 70.5626 80.2124C69.9856 80.8305 69.0422 80.9075 68.2534 80.5789C67.1944 80.1354 64.2315 79.0911 60.5759 75.8279C57.7469 73.299 55.8234 70.1508 55.2648 69.2051C54.7061 68.24 55.2075 67.6793 55.6495 67.1577C56.1303 66.5591 56.5917 66.1339 57.0737 65.5744C57.5545 65.0148 57.8247 64.7242 58.1327 64.0681C58.4601 63.4304 58.2288 62.7743 57.9976 62.2917C57.7663 61.8091 55.8429 57.0972 55.0541 55.1853Z" fill="#FEFEFE"/>
</svg>
