<svg width="321" height="139" viewBox="0 0 321 139" fill="none" xmlns="http://www.w3.org/2000/svg">
<g clip-path="url(#clip0_102_11)">
<rect width="321" height="139" rx="20" fill="white"/>
<mask id="mask0_102_11" style="mask-type:luminance" maskUnits="userSpaceOnUse" x="87" y="12" width="152" height="118">
<path d="M238.755 12H87V130H238.755V12Z" fill="white"/>
</mask>
<g mask="url(#mask0_102_11)">
<path d="M114.505 129.741V121.91C114.505 118.915 112.682 116.953 109.554 116.953C107.989 116.953 106.288 117.47 105.119 119.173C104.208 117.744 102.902 116.953 100.942 116.953C99.6362 116.953 98.33 117.348 97.2973 118.778V117.212H94.5635V129.741H97.2973V122.823C97.2973 120.603 98.4667 119.553 100.289 119.553C102.112 119.553 103.023 120.724 103.023 122.823V129.741H105.757V122.823C105.757 120.603 107.063 119.553 108.749 119.553C110.571 119.553 111.483 120.724 111.483 122.823V129.741H114.505ZM155.056 117.212H150.621V113.425H147.887V117.212H145.412V119.69H147.887V125.438C147.887 128.312 149.057 130 152.186 130C153.355 130 154.661 129.605 155.572 129.087L154.783 126.731C153.993 127.248 153.082 127.385 152.428 127.385C151.122 127.385 150.606 126.594 150.606 125.301V119.69H155.041V117.212H155.056ZM178.263 116.938C176.698 116.938 175.651 117.728 174.997 118.763V117.196H172.264V129.726H174.997V122.67C174.997 120.587 175.909 119.401 177.61 119.401C178.126 119.401 178.779 119.538 179.311 119.66L180.1 117.044C179.554 116.938 178.779 116.938 178.263 116.938ZM143.194 118.246C141.888 117.333 140.066 116.938 138.107 116.938C134.978 116.938 132.897 118.504 132.897 120.983C132.897 123.066 134.461 124.252 137.195 124.632L138.502 124.769C139.929 125.028 140.719 125.423 140.719 126.077C140.719 126.989 139.671 127.643 137.848 127.643C136.026 127.643 134.583 126.989 133.672 126.335L132.366 128.419C133.793 129.468 135.752 129.985 137.712 129.985C141.357 129.985 143.453 128.282 143.453 125.94C143.453 123.72 141.752 122.549 139.154 122.154L137.848 122.017C136.679 121.88 135.768 121.621 135.768 120.846C135.768 119.933 136.679 119.416 138.122 119.416C139.686 119.416 141.25 120.07 142.04 120.466L143.194 118.246ZM215.928 116.938C214.364 116.938 213.316 117.728 212.663 118.763V117.196H209.929V129.726H212.663V122.67C212.663 120.587 213.574 119.401 215.275 119.401C215.791 119.401 216.445 119.538 216.976 119.66L217.766 117.075C217.234 116.938 216.46 116.938 215.928 116.938ZM180.997 123.477C180.997 127.263 183.609 130 187.649 130C189.471 130 190.778 129.605 192.084 128.571L190.778 126.35C189.73 127.141 188.697 127.521 187.512 127.521C185.295 127.521 183.73 125.955 183.73 123.477C183.73 121.119 185.295 119.553 187.512 119.432C188.682 119.432 189.73 119.827 190.778 120.603L192.084 118.382C190.778 117.333 189.471 116.953 187.649 116.953C183.609 116.938 180.997 119.69 180.997 123.477ZM206.284 123.477V117.212H203.55V118.778C202.639 117.607 201.333 116.953 199.632 116.953C196.108 116.953 193.374 119.69 193.374 123.477C193.374 127.263 196.108 130 199.632 130C201.454 130 202.76 129.346 203.55 128.175V129.741H206.284V123.477ZM196.245 123.477C196.245 121.256 197.673 119.432 200.027 119.432C202.244 119.432 203.808 121.135 203.808 123.477C203.808 125.696 202.244 127.521 200.027 127.521C197.688 127.385 196.245 125.681 196.245 123.477ZM163.531 116.938C159.886 116.938 157.273 119.553 157.273 123.461C157.273 127.385 159.886 129.985 163.667 129.985C165.49 129.985 167.313 129.468 168.755 128.282L167.449 126.32C166.401 127.111 165.095 127.628 163.804 127.628C162.103 127.628 160.417 126.837 160.022 124.632H169.272C169.272 124.237 169.272 123.978 169.272 123.583C169.393 119.553 167.039 116.938 163.531 116.938ZM163.531 119.295C165.232 119.295 166.401 120.344 166.659 122.29H160.144C160.402 120.603 161.572 119.295 163.531 119.295ZM231.45 123.477V112.254H228.716V118.778C227.805 117.607 226.499 116.953 224.798 116.953C221.274 116.953 218.541 119.69 218.541 123.477C218.541 127.263 221.274 130 224.798 130C226.62 130 227.926 129.346 228.716 128.175V129.741H231.45V123.477ZM221.411 123.477C221.411 121.256 222.839 119.432 225.193 119.432C227.41 119.432 228.974 121.135 228.974 123.477C228.974 125.696 227.41 127.521 225.193 127.521C222.839 127.385 221.411 125.681 221.411 123.477ZM129.89 123.477V117.212H127.156V118.778C126.245 117.607 124.939 116.953 123.238 116.953C119.714 116.953 116.98 119.69 116.98 123.477C116.98 127.263 119.714 130 123.238 130C125.06 130 126.367 129.346 127.156 128.175V129.741H129.89V123.477ZM119.729 123.477C119.729 121.256 121.157 119.432 123.511 119.432C125.729 119.432 127.293 121.135 127.293 123.477C127.293 125.696 125.729 127.521 123.511 127.521C121.157 127.385 119.729 125.681 119.729 123.477Z" fill="black"/>
<path d="M183.351 22.0512H142.283V95.9229H183.351V22.0512Z" fill="#FF5A00"/>
<path d="M145.017 58.9872C145.017 43.9785 152.064 30.658 162.878 22.0513C154.919 15.7863 144.88 12 133.93 12C107.989 12 87 33.0149 87 58.9872C87 84.9592 107.989 105.974 133.93 105.974C144.88 105.974 154.919 102.188 162.878 95.9229C152.049 87.4379 145.017 73.9955 145.017 58.9872Z" fill="#EB001B"/>
<path d="M238.755 58.9872C238.755 84.9592 217.766 105.974 191.825 105.974C180.875 105.974 170.836 102.188 162.878 95.9229C173.828 87.3009 180.738 73.9955 180.738 58.9872C180.738 43.9785 173.691 30.658 162.878 22.0513C170.821 15.7863 180.86 12 191.81 12C217.766 12 238.755 33.1518 238.755 58.9872Z" fill="#F79E1B"/>
</g>
</g>
<defs>
<clipPath id="clip0_102_11">
<rect width="321" height="139" rx="20" fill="white"/>
</clipPath>
</defs>
</svg>
