<svg width="500" height="389" viewBox="0 0 500 389" fill="none" xmlns="http://www.w3.org/2000/svg">
<g clip-path="url(#clip0_34_1428)">
<path d="M90.6225 387.46V361.689C90.6225 351.832 84.6177 345.376 74.3094 345.376C69.1553 345.376 63.5508 347.078 59.6977 352.682C56.6953 347.979 52.3919 345.376 45.9367 345.376C41.6333 345.376 37.3299 346.677 33.9271 351.381V346.227H24.9199V387.46H33.9271V364.692C33.9271 357.386 37.7802 353.933 43.785 353.933C49.7898 353.933 52.7922 357.786 52.7922 364.692V387.46H61.7994V364.692C61.7994 357.386 66.1029 353.933 71.6573 353.933C77.6621 353.933 80.6645 357.786 80.6645 364.692V387.46H90.6225ZM224.229 346.227H209.618V333.767H200.61V346.227H192.454V354.384H200.61V373.299C200.61 382.756 204.464 388.311 214.772 388.311C218.625 388.311 222.928 387.01 225.931 385.308L223.329 377.552C220.727 379.254 217.724 379.704 215.572 379.704C211.269 379.704 209.568 377.102 209.568 372.848V354.384H224.179V346.227H224.229ZM300.691 345.326C295.536 345.326 292.084 347.928 289.932 351.331V346.177H280.925V387.41H289.932V364.191C289.932 357.336 292.934 353.433 298.539 353.433C300.24 353.433 302.392 353.883 304.143 354.284L306.745 345.677C304.944 345.326 302.392 345.326 300.691 345.326ZM185.148 349.63C180.845 346.627 174.84 345.326 168.385 345.326C158.076 345.326 151.221 350.481 151.221 358.637C151.221 365.493 156.375 369.396 165.382 370.647L169.686 371.097C174.39 371.948 176.992 373.249 176.992 375.4C176.992 378.403 173.539 380.555 167.534 380.555C161.529 380.555 156.775 378.403 153.773 376.251L149.47 383.107C154.173 386.559 160.628 388.261 167.084 388.261C179.093 388.261 185.999 382.656 185.999 374.95C185.999 367.644 180.394 363.791 171.837 362.49L167.534 362.04C163.681 361.589 160.679 360.739 160.679 358.187C160.679 355.184 163.681 353.483 168.435 353.483C173.589 353.483 178.743 355.635 181.345 356.936L185.148 349.63ZM424.79 345.326C419.636 345.326 416.183 347.928 414.031 351.331V346.177H405.024V387.41H414.031V364.191C414.031 357.336 417.034 353.433 422.638 353.433C424.339 353.433 426.491 353.883 428.243 354.284L430.845 345.777C429.093 345.326 426.541 345.326 424.79 345.326ZM309.698 366.844C309.698 379.304 318.305 388.311 331.615 388.311C337.62 388.311 341.924 387.01 346.227 383.607L341.924 376.301C338.471 378.903 335.068 380.154 331.165 380.154C323.859 380.154 318.705 375 318.705 366.844C318.705 359.087 323.859 353.933 331.165 353.533C335.018 353.533 338.471 354.834 341.924 357.386L346.227 350.08C341.924 346.627 337.62 345.376 331.615 345.376C318.305 345.326 309.698 354.384 309.698 366.844ZM393.014 366.844V346.227H384.007V351.381C381.005 347.528 376.701 345.376 371.097 345.376C359.488 345.376 350.48 354.384 350.48 366.844C350.48 379.304 359.488 388.311 371.097 388.311C377.102 388.311 381.405 386.159 384.007 382.306V387.46H393.014V366.844ZM359.938 366.844C359.938 359.538 364.642 353.533 372.398 353.533C379.704 353.533 384.858 359.137 384.858 366.844C384.858 374.149 379.704 380.154 372.398 380.154C364.692 379.704 359.938 374.099 359.938 366.844ZM252.152 345.326C240.142 345.326 231.535 353.933 231.535 366.794C231.535 379.704 240.142 388.261 252.602 388.261C258.607 388.261 264.612 386.559 269.365 382.656L265.062 376.201C261.609 378.803 257.306 380.505 253.052 380.505C247.448 380.505 241.893 377.902 240.592 370.647H271.067C271.067 369.346 271.067 368.495 271.067 367.194C271.467 353.933 263.711 345.326 252.152 345.326ZM252.152 353.083C257.756 353.083 261.609 356.535 262.46 362.94H240.993C241.843 357.386 245.697 353.083 252.152 353.083ZM475.931 366.844V329.914H466.923V351.381C463.921 347.528 459.618 345.376 454.013 345.376C442.404 345.376 433.397 354.384 433.397 366.844C433.397 379.304 442.404 388.311 454.013 388.311C460.018 388.311 464.321 386.159 466.923 382.306V387.46H475.931V366.844ZM442.854 366.844C442.854 359.538 447.558 353.533 455.314 353.533C462.62 353.533 467.774 359.137 467.774 366.844C467.774 374.149 462.62 380.154 455.314 380.154C447.558 379.704 442.854 374.099 442.854 366.844ZM141.313 366.844V346.227H132.306V351.381C129.303 347.528 125 345.376 119.396 345.376C107.786 345.376 98.779 354.384 98.779 366.844C98.779 379.304 107.786 388.311 119.396 388.311C125.4 388.311 129.704 386.159 132.306 382.306V387.46H141.313V366.844ZM107.836 366.844C107.836 359.538 112.54 353.533 120.296 353.533C127.602 353.533 132.756 359.137 132.756 366.844C132.756 374.149 127.602 380.154 120.296 380.154C112.54 379.704 107.836 374.099 107.836 366.844Z" fill="white"/>
<path d="M317.455 33.0762H182.146V276.171H317.455V33.0762Z" fill="#FF5A00"/>
<path d="M191.153 154.624C191.153 105.234 214.371 61.3991 250 33.0765C223.779 12.46 190.703 0 154.624 0C69.1553 0 0 69.1553 0 154.624C0 240.092 69.1553 309.247 154.624 309.247C190.703 309.247 223.779 296.787 250 276.171C214.321 248.249 191.153 204.013 191.153 154.624Z" fill="#EB001B"/>
<path d="M500 154.624C500 240.092 430.845 309.247 345.376 309.247C309.297 309.247 276.221 296.787 250 276.171C286.079 247.798 308.847 204.013 308.847 154.624C308.847 105.234 285.629 61.3991 250 33.0765C276.171 12.46 309.247 0 345.326 0C430.845 0 500 69.6057 500 154.624Z" fill="#F79E1B"/>
</g>
<defs>
<clipPath id="clip0_34_1428">
<rect width="500" height="388.311" fill="white"/>
</clipPath>
</defs>
</svg>
