<svg width="500" height="163" viewBox="0 0 500 163" fill="none" xmlns="http://www.w3.org/2000/svg">
<g clip-path="url(#clip0_34_1408)">
<path d="M325.595 0.25C290.13 0.25 258.435 18.635 258.435 52.595C258.435 91.545 314.645 94.235 314.645 113.805C314.645 122.045 305.205 129.42 289.075 129.42C266.19 129.42 249.085 119.115 249.085 119.115L241.765 153.39C241.765 153.39 261.47 162.095 287.63 162.095C326.405 162.095 356.92 142.81 356.92 108.265C356.92 67.105 300.475 64.495 300.475 46.335C300.475 39.88 308.225 32.81 324.305 32.81C342.45 32.81 357.25 40.305 357.25 40.305L364.415 7.205C364.415 7.205 348.305 0.25 325.59 0.25H325.595ZM1.11 2.75L0.25 7.745C0.25 7.745 15.17 10.475 28.61 15.925C45.915 22.17 47.145 25.81 50.06 37.1L81.815 159.515H124.385L189.965 2.75H147.495L105.355 109.335L88.16 18.985C86.585 8.645 78.595 2.745 68.82 2.745H1.115L1.11 2.75ZM207.045 2.75L173.73 159.515H214.23L247.425 2.75H207.045ZM432.925 2.75C423.16 2.75 417.985 7.98 414.19 17.115L354.855 159.515H397.325L405.54 135.78H457.28L462.275 159.515H499.75L467.06 2.75H432.925ZM438.45 45.105L451.04 103.93H417.315L438.455 45.105H438.45Z" fill="#1434CB"/>
</g>
<defs>
<clipPath id="clip0_34_1408">
<rect width="500" height="162.34" fill="white"/>
</clipPath>
</defs>
</svg>
