<svg width="240" height="96" viewBox="0 0 240 96" fill="none" xmlns="http://www.w3.org/2000/svg">
<path d="M225.895 54.314C225.764 54.9733 225.534 55.5328 225.22 56.0266C224.907 56.5205 224.496 56.9163 223.97 57.2288C223.458 57.5257 222.817 57.6903 222.059 57.6903C221.301 57.6903 220.676 57.5423 220.166 57.2288C219.657 56.9311 219.223 56.5195 218.897 56.0266C218.584 55.5328 218.354 54.9724 218.206 54.314C218.06 53.6602 217.988 52.9915 217.991 52.3211C217.991 51.6294 218.058 50.9376 218.189 50.2958C218.32 49.6365 218.551 49.0604 218.864 48.5665C219.177 48.0551 219.588 47.6603 220.114 47.332C220.626 47.0185 221.268 46.8539 222.025 46.8539C222.782 46.8539 223.392 47.0185 223.902 47.332C224.414 47.6482 224.847 48.0764 225.171 48.5832C225.5 49.0936 225.731 49.6864 225.878 50.3291C226.026 50.9876 226.093 51.646 226.093 52.322C226.093 52.998 226.026 53.6555 225.895 54.3149V54.314ZM230.276 48.9956C229.962 47.8924 229.502 46.9371 228.876 46.0974C228.233 45.2744 227.443 44.5983 226.488 44.1045C225.533 43.6107 224.38 43.3471 223.046 43.3471C221.992 43.3471 221.036 43.5617 220.164 43.9732C219.291 44.3847 218.566 45.0598 218.007 45.9661H217.941V43.8086H213.528V66.6495H218.172V58.6289H218.238C218.785 59.4344 219.535 60.0827 220.412 60.5062C221.302 60.9344 222.257 61.1489 223.31 61.1489C224.546 61.1489 225.632 60.902 226.571 60.4239C227.477 59.9597 228.27 59.3022 228.893 58.4967C229.519 57.6903 229.98 56.7674 230.277 55.7141C230.59 54.6598 230.738 53.5742 230.738 52.4367C230.738 51.2345 230.59 50.0822 230.277 48.978V48.9947L230.276 48.9956ZM207.369 54.314C207.238 54.9733 207.008 55.5328 206.694 56.0266C206.381 56.5205 205.97 56.9163 205.443 57.2288C204.932 57.5257 204.291 57.6903 203.533 57.6903C202.776 57.6903 202.166 57.5423 201.639 57.2288C201.13 56.9301 200.696 56.5195 200.371 56.0266C200.058 55.5328 199.828 54.9724 199.68 54.314C199.535 53.6602 199.462 52.9915 199.465 52.3211C199.465 51.6294 199.531 50.9376 199.662 50.2958C199.794 49.6365 200.024 49.0604 200.337 48.5665C200.651 48.0551 201.061 47.6603 201.588 47.332C202.099 47.0185 202.741 46.8539 203.498 46.8539C204.256 46.8539 204.865 47.0185 205.376 47.332C205.888 47.6482 206.321 48.0755 206.643 48.5832C206.973 49.0936 207.204 49.6864 207.352 50.3291C207.5 50.9876 207.565 51.646 207.565 52.322C207.565 52.998 207.5 53.6555 207.368 54.3149L207.369 54.314ZM210.349 46.0974C209.724 45.2744 208.916 44.5983 207.961 44.1045C207.006 43.6107 205.854 43.3471 204.519 43.3471C203.465 43.3471 202.51 43.5617 201.637 43.9732C200.765 44.3847 200.04 45.0598 199.481 45.9661H199.414V43.8086H195.001V66.6495H199.646V58.6289H199.712C200.26 59.4344 201.01 60.0827 201.886 60.5062C202.775 60.9344 203.73 61.1489 204.784 61.1489C206.035 61.1489 207.106 60.902 208.045 60.4239C208.951 59.9597 209.743 59.3022 210.366 58.4967C210.992 57.6903 211.454 56.7674 211.767 55.7141C212.072 54.6478 212.226 53.5455 212.229 52.4367C212.229 51.2345 212.08 50.0822 211.767 48.978C211.454 47.8748 210.993 46.9195 210.351 46.0798V46.0965L210.349 46.0974ZM179.784 51.6959L182.83 43.1159H182.896L185.844 51.6959H179.784ZM180.278 37.3528L171.435 60.7198H176.607L178.435 55.5162H187.179L188.94 60.7198H194.275L185.532 37.3528H180.261H180.278ZM171.056 53.3097C170.743 52.7825 170.348 52.322 169.837 51.9595C169.344 51.597 168.767 51.3168 168.125 51.0865C167.474 50.8729 166.814 50.6861 166.149 50.527C165.49 50.3781 164.847 50.2302 164.221 50.0989C163.595 49.9676 163.019 49.8187 162.542 49.6541C162.048 49.4894 161.653 49.2758 161.356 49.0113C161.043 48.7478 160.895 48.4186 160.895 47.9904C160.895 47.6445 160.977 47.3643 161.158 47.1498C161.339 46.9362 161.553 46.7873 161.8 46.6726C162.047 46.557 162.327 46.4913 162.641 46.459C162.925 46.4275 163.211 46.4109 163.497 46.41C164.321 46.41 165.045 46.5746 165.655 46.8871C166.264 47.1997 166.61 47.8091 166.659 48.6988H171.072C170.99 47.6445 170.71 46.7882 170.266 46.0965C169.821 45.4047 169.261 44.8619 168.586 44.4495C167.911 44.037 167.137 43.742 166.281 43.5608C165.424 43.3795 164.535 43.2972 163.613 43.2972C162.691 43.2972 161.801 43.3795 160.929 43.5441C160.056 43.7087 159.266 43.9889 158.575 44.4004C157.867 44.812 157.306 45.3557 156.895 46.0475C156.467 46.7392 156.253 47.6455 156.253 48.7311C156.253 49.4728 156.401 50.0979 156.714 50.6084C157.011 51.1198 157.422 51.5471 157.916 51.8929C158.427 52.2221 158.987 52.5023 159.629 52.7169C160.271 52.9314 160.93 53.1127 161.605 53.2607C163.269 53.6065 164.553 53.9524 165.491 54.2982C166.413 54.6441 166.875 55.1712 166.875 55.863C166.875 56.2745 166.776 56.6203 166.578 56.9005C166.384 57.1743 166.131 57.399 165.836 57.559C165.539 57.7236 165.21 57.8392 164.848 57.9215C164.508 57.9992 164.16 58.038 163.811 58.0371C163.349 58.0371 162.904 57.9881 162.493 57.8725C162.065 57.7569 161.687 57.5913 161.357 57.362C161.028 57.1317 160.765 56.8349 160.551 56.4733C160.336 56.1108 160.237 55.6826 160.237 55.1888H155.824C155.873 56.3244 156.121 57.2631 156.598 58.0214C157.06 58.7797 157.668 59.3715 158.393 59.833C159.118 60.2944 159.958 60.6227 160.897 60.8206C161.835 61.0185 162.79 61.1175 163.778 61.1175C164.767 61.1175 165.689 61.0185 166.611 60.8364C167.533 60.656 168.357 60.3259 169.081 59.8654C169.805 59.4048 170.382 58.7954 170.827 58.0537C171.271 57.2963 171.502 56.3744 171.502 55.2545C171.502 54.4647 171.354 53.8053 171.041 53.2782L171.056 53.3124V53.3097ZM151.838 38.7362H147.194V43.8086H144.377V46.9204H147.194V56.9005C147.194 57.7569 147.342 58.432 147.622 58.9591C147.902 59.4862 148.297 59.8811 148.791 60.1779C149.284 60.4581 149.845 60.6551 150.487 60.7541C151.163 60.8549 151.845 60.9039 152.529 60.902C152.99 60.902 153.451 60.8854 153.944 60.8697C154.381 60.8549 154.816 60.8105 155.246 60.7374V57.1308C155.018 57.1817 154.787 57.215 154.555 57.2298C154.302 57.2492 154.05 57.2603 153.797 57.2631C153.007 57.2631 152.496 57.1317 152.233 56.8673C151.969 56.6046 151.837 56.0766 151.837 55.3035V46.9214H155.246V43.8095H151.837V38.7372L151.838 38.7362ZM138.515 54.1826C138.515 54.4453 138.482 54.7921 138.432 55.2369C138.377 55.6919 138.225 56.1293 137.988 56.5214C137.741 56.9496 137.378 57.3121 136.868 57.6256C136.374 57.9381 135.649 58.087 134.743 58.087C134.381 58.087 134.018 58.0537 133.656 57.9881C133.31 57.9215 132.997 57.8059 132.734 57.6422C132.47 57.4776 132.272 57.2631 132.108 56.9671C131.96 56.6869 131.878 56.342 131.878 55.9129C131.878 55.4838 131.96 55.1222 132.108 54.8263C132.256 54.5452 132.469 54.3149 132.717 54.1179C132.964 53.9367 133.261 53.7887 133.606 53.674C133.951 53.5594 134.281 53.4761 134.644 53.4105C135.015 53.3467 135.389 53.2921 135.763 53.2459C136.143 53.1968 136.488 53.1469 136.834 53.0812C137.18 53.0156 137.493 52.9333 137.79 52.8343C138.086 52.7354 138.333 52.6041 138.531 52.4228V54.1521L138.514 54.1845L138.515 54.1826ZM143.159 56.9653V48.155C143.159 47.1341 142.929 46.311 142.468 45.6849C142.007 45.0589 141.414 44.5817 140.705 44.2358C139.981 43.89 139.191 43.6597 138.318 43.5284C137.461 43.4109 136.598 43.3508 135.733 43.3471C134.793 43.3471 133.856 43.4461 132.934 43.6273C132.012 43.8086 131.172 44.1212 130.43 44.566C129.701 44.9997 129.076 45.5906 128.602 46.2953C128.125 47.0203 127.845 47.9257 127.779 49.0123H132.423C132.505 48.0903 132.818 47.4485 133.345 47.0527C133.872 46.6569 134.581 46.4599 135.503 46.4599C135.914 46.4599 136.309 46.4923 136.672 46.5422C137.009 46.5866 137.334 46.6985 137.627 46.8714C137.907 47.036 138.121 47.2663 138.286 47.5632C138.451 47.86 138.533 48.254 138.533 48.7654C138.55 49.2425 138.418 49.606 138.105 49.8686C137.792 50.1155 137.381 50.3134 136.854 50.4447C136.327 50.5761 135.734 50.675 135.059 50.7416C134.384 50.8082 133.692 50.8895 133 51.0051C132.309 51.1207 131.617 51.2678 130.925 51.449C130.233 51.6303 129.624 51.9105 129.097 52.2896C128.553 52.6679 128.126 53.1617 127.78 53.7711C127.434 54.3972 127.269 55.1879 127.269 56.1432C127.269 57.0161 127.417 57.7735 127.714 58.3987C127.993 59.009 128.41 59.5445 128.933 59.9634C129.477 60.386 130.097 60.6995 130.761 60.8854C131.453 61.0833 132.21 61.1813 133.017 61.1813C134.071 61.1813 135.092 61.0333 136.096 60.7198C137.09 60.4165 137.99 59.8672 138.714 59.1228C138.731 59.403 138.78 59.6822 138.83 59.9625C138.879 60.2251 138.961 60.5062 139.045 60.7688H143.754C143.54 60.423 143.375 59.8959 143.293 59.2041C143.206 58.4773 143.162 57.7458 143.161 57.0143V56.9634L143.159 56.9653ZM124.024 45.2734C123.562 44.6806 122.936 44.2035 122.146 43.8733C121.356 43.5275 120.335 43.3629 119.083 43.3629C118.21 43.3629 117.322 43.5931 116.4 44.0379C115.478 44.4827 114.736 45.2068 114.144 46.1788H114.045V37.3685H109.401V60.7365H114.045V51.8606C114.045 50.1312 114.325 48.8967 114.902 48.1384C115.462 47.381 116.384 47.0185 117.652 47.0185C118.755 47.0185 119.546 47.3643 119.974 48.0551C120.402 48.7469 120.633 49.7844 120.633 51.1836V60.7356H125.278V50.3282C125.278 49.274 125.179 48.3196 124.997 47.4633C124.816 46.6069 124.487 45.8662 124.025 45.2725L124.024 45.2734ZM99.47 53.4743H99.4043L95.4195 37.3694H90.6107L86.5593 53.2773H86.4936L82.7881 37.3694H77.651L83.8423 60.7374H89.046L92.9319 44.8295H92.9975L96.95 60.7374H102.055L104.854 50.3624L108.345 37.3694H103.306L99.47 53.4743Z" fill="white"/>
<path d="M37.8881 20.9385C22.4417 20.9385 9.87683 33.5033 9.87683 48.9497C9.87683 55.0754 11.8531 60.7572 15.2118 65.3681L11.7208 75.7754L22.4907 72.3343C26.9203 75.2659 32.2063 76.9619 37.9047 76.9619C53.3511 76.9619 65.916 64.3971 65.916 48.9506C65.916 33.5042 53.3511 20.9394 37.9047 20.9394H37.8881V20.9385Z" fill="#25D366"/>
<path d="M30.0665 35.1668C29.5228 33.8656 29.1113 33.8166 28.2882 33.7833C27.9756 33.763 27.6621 33.7519 27.3496 33.751C26.2787 33.751 25.1588 34.0635 24.4837 34.7553C23.6607 35.595 21.6188 37.5545 21.6188 41.5727C21.6188 45.5908 24.5503 49.4776 24.9452 50.0214C25.3567 50.5642 30.6602 58.9297 38.8935 62.3393C45.3326 65.0072 47.2432 64.7594 48.708 64.4468C50.8489 63.9854 53.5335 62.404 54.2085 60.4944C54.8836 58.5838 54.8836 56.9534 54.6857 56.6076C54.4878 56.2617 53.9441 56.0647 53.121 55.6523C52.298 55.2407 48.2956 53.2645 47.5382 53.001C46.7965 52.7208 46.0891 52.8206 45.5296 53.6104C44.7389 54.7136 43.9649 55.8335 43.3388 56.5086C42.845 57.0357 42.0377 57.1014 41.3626 56.8212C40.4563 56.4429 37.9206 55.5524 34.7921 52.7698C32.3711 50.6132 30.725 47.9286 30.2469 47.1222C29.7688 46.2992 30.1979 45.8211 30.5761 45.3762C30.9876 44.8658 31.3825 44.5033 31.7949 44.0261C32.2064 43.5489 32.4376 43.3011 32.7012 42.7416C32.9814 42.1978 32.7835 41.6383 32.5856 41.2268C32.3877 40.8153 30.7416 36.7972 30.0665 35.1668Z" fill="#FEFEFE"/>
</svg>
